<?xml version="1.0" encoding="utf-8"?>
<!-- Generator: Adobe Illustrator 25.4.1, SVG Export Plug-In . SVG Version: 6.00 Build 0)  -->
<svg version="1.1" id="Layer_1" xmlns="http://www.w3.org/2000/svg" xmlns:xlink="http://www.w3.org/1999/xlink" x="0px" y="0px"
	 viewBox="0 0 400 400" style="enable-background:new 0 0 400 400;" xml:space="preserve">
<path d="M378.3,150.1c-14-31.2-30.3-61.2-48.7-89.7l-6-9.1c-7.3-11.2-16.9-20.7-28.1-27.5c-11.1-6.9-23.6-11.1-36.5-12.1l-10.5-0.9
	c-32.4-2.8-64.9-2.8-97.4,0l-10.5,0.9c-12.9,1-25.3,5.2-36.5,12.1S83.5,40.1,76.2,51.4l-6,9.2C51.7,89,35.5,119,21.5,150.2
	l-4.5,10.1c-5.6,12.4-8.4,25.9-8.4,39.7c0,13.7,2.8,27.3,8.4,39.7l4.5,10.1c14,31.2,30.3,61.2,48.7,89.7l6,9.2
	c7.3,11.3,17,20.7,28.1,27.6c11.2,6.9,23.7,11,36.5,12.1l10.5,0.9c32.4,2.8,64.9,2.8,97.4,0l10.5-0.9c12.9-1.1,25.3-5.2,36.5-12.1
	c11.2-6.9,20.8-16.4,28.1-27.6l6-9.2c18.5-28.5,34.7-58.5,48.7-89.7l4.5-10.1c5.5-12.4,8.4-25.9,8.4-39.7s-2.8-27.3-8.4-39.7
	L378.3,150.1z"/>
</svg>
